<svg height="512pt" viewBox="0 0 512 512" width="512pt" xmlns="http://www.w3.org/2000/svg"><path d="m256 512c-141.160156 0-256-114.839844-256-256s114.839844-256 256-256 256 114.839844 256 256-114.839844 256-256 256zm120-300c-24.261719 0-44 19.738281-44 44s19.738281 44 44 44 44-19.738281 44-44-19.738281-44-44-44zm-120 0c-24.261719 0-44 19.738281-44 44s19.738281 44 44 44 44-19.738281 44-44-19.738281-44-44-44zm-120 0c-24.261719 0-44 19.738281-44 44s19.738281 44 44 44 44-19.738281 44-44-19.738281-44-44-44zm240 60c-8.972656 0-16-7.027344-16-16s7.027344-16 16-16 16 7.027344 16 16-7.027344 16-16 16zm-120 0c-8.972656 0-16-7.027344-16-16s7.027344-16 16-16 16 7.027344 16 16-7.027344 16-16 16zm-120 0c-8.972656 0-16-7.027344-16-16s7.027344-16 16-16 16 7.027344 16 16-7.027344 16-16 16zm0 0"/></svg>